# xmcd CD database file
# Copyright (C) 1995 Ti Kan
#
# Track frame offsets:
#	175
#	8042
#	15567
#	27682
#	37882
#	52552
#	60545
#	68232
#	77557
#	87530
#	98257
#	115242
#	119180
#	144600
#	147032
#	155810
#	175705
#	197455
#	212922
#	228282
#	239040
#	252487
#	270922
#	292895
#	302365
#
# Disc length: 4217 seconds
#
# Revision: 1
# Processed by: cddbd v1.4b41PL1 Copyright (c) Steve Scherf et al.
# Submitted via: NotifyCDPlayer(CDDB) 1.05
#
DISCID=4f107719
DTITLE=Tony Trischka and Bela Fleck - Solo Banjo Works
DYEAR=1900
DGENRE=
TTITLE0=Ruben's Wah Wah
TTITLE1=2Fourteen
TTITLE2=Liberec
TTITLE3=Free Improvisation #2
TTITLE4=Assunta
TTITLE5=Old Joe Clark - June Apple
TTITLE6=Max and Gus
TTITLE7=Beaumont Rag
TTITLE8=Kingfisher's Wing
TTITLE9=Earl Scrugs Medley
TTITLE10=Jeff Davis Medley
TTITLE11=Yaha Yaha
TTITLE12=Beatles Medley
TTITLE13=The Rings of Saturn
TTITLE14=Green Willis - Whiskey Before Breakfast
TTITLE15=Killer Bees on Caffeine
TTITLE16=Oma and Opa
TTITLE17=Solaris
TTITLE18=Flapperette - Red Pepper-Spicy Rag
TTITLE19=Triplet Fever
TTITLE20=Bach Violin Partita in D Minor (BVW 1004)
TTITLE21=Did You Ever Meet Gary Owen, Uncle Joe?
TTITLE22=Middle Eastern Medley
TTITLE23=Twisted Teen
TTITLE24=Au Lait
EXTD=
EXTT0=
EXTT1=
EXTT2=
EXTT3=
EXTT4=
EXTT5=
EXTT6=
EXTT7=
EXTT8=
EXTT9=
EXTT10=
EXTT11=
EXTT12=
EXTT13=
EXTT14=
EXTT15=
EXTT16=
EXTT17=
EXTT18=
EXTT19=
EXTT20=
EXTT21=
EXTT22=
EXTT23=
EXTT24=
PLAYORDER=
